<mxfile host="app.diagrams.net" modified="2023-06-05T15:14:37.676Z" agent="Mozilla/5.0 (Windows NT 10.0; Win64; x64) AppleWebKit/537.36 (KHTML, like Gecko) Chrome/114.0.0.0 Safari/537.36" version="21.3.7" etag="dJXmIQSpz4wNjtQlYfdi" type="github">
  <diagram name="Strona-1" id="Cne-YGDQuB8Pd7gsclEt">
    <mxGraphModel>
      <root>
        <mxCell id="0" />
        <mxCell id="1" parent="0" />
      </root>
    </mxGraphModel>
  </diagram>
</mxfile>
